<svg width="19" height="10" viewBox="0 0 19 10" fill="none" xmlns="http://www.w3.org/2000/svg">
<path d="M17.5324 9V7.77539H18.757V9H17.5324Z" fill="#333333"/>
<path d="M15.1395 7.21289L16.0418 8.01563C15.7762 8.32031 15.4637 8.56836 15.1043 8.75977C14.7449 8.95899 14.3289 9.0625 13.8563 9.07031C13.1375 9.07031 12.5067 8.82617 11.9637 8.33789C11.4012 7.84961 11.1121 7.0586 11.0965 5.96485C11.1121 4.85938 11.4012 4.0586 11.9637 3.5625C12.5067 3.07422 13.1375 2.83399 13.8563 2.8418C14.3289 2.84961 14.7449 2.94727 15.1043 3.13477C15.4637 3.32617 15.7762 3.58203 16.0418 3.90235L15.1395 4.70508C14.8309 4.29492 14.4188 4.08203 13.9031 4.06641C12.8641 4.05078 12.3367 4.6836 12.3211 5.96485C12.3367 7.23828 12.8641 7.86524 13.9031 7.8457C14.4188 7.83789 14.8309 7.62695 15.1395 7.21289Z" fill="#333333"/>
<path d="M4.85083 9V0.457031H6.07544V5.77148H6.09888L8.43677 2.91797H9.90161L7.80396 5.29102L10.1887 9H8.65356L7.03638 6.1582L6.07544 7.24805V9H4.85083Z" fill="#333333"/>
<path d="M0.861328 2.91797V1.06641H2.08594V2.91797H2.97656V3.84961H2.08594V7.39453C2.07812 7.70312 2.22266 7.85352 2.51953 7.8457H2.97656V9H2.33789C1.9082 9 1.55664 8.86719 1.2832 8.60156C1.00195 8.34766 0.861328 7.98047 0.861328 7.5V3.84961H0.251953V2.91797H0.861328Z" fill="#333333"/>
</svg>